<svg width="78" height="78" viewBox="0 0 78 78" fill="none" xmlns="http://www.w3.org/2000/svg">
<g clip-path="url(#clip0_1_193)">
<path d="M17.9425 26.5605C17.3483 25.9663 16.3825 25.9663 15.7885 26.5605C15.1928 27.1561 15.1928 28.1205 15.7885 28.7146C16.3826 29.3103 17.3485 29.3103 17.9425 28.7146C18.538 28.1205 18.538 27.1561 17.9425 26.5605Z" fill="#D4A94F"/>
<path d="M38.5734 68.2072C39.245 67.2974 39.6081 66.2013 39.6081 65.0488C39.6081 62.1089 37.2163 59.7169 34.2762 59.7169H8.37862C6.95374 59.7169 5.61479 60.2715 4.60826 61.2783C3.60126 62.285 3.04673 63.6239 3.04673 65.0488C3.04673 66.2293 3.43307 67.321 4.08495 68.2054C1.65918 69.4808 0 72.0249 0 74.9507V76.4742C0 77.3156 0.682197 77.9976 1.52344 77.9976H41.1314C41.9726 77.9976 42.6548 77.3156 42.6548 76.4742V74.9507C42.6548 72.0263 40.9973 69.4832 38.5734 68.2072ZM6.76255 63.4324C7.19384 63.001 7.76787 62.7635 8.37862 62.7635H34.2762C35.5362 62.7635 36.5612 63.7886 36.5612 65.0485C36.5612 65.6594 36.3235 66.2333 35.8921 66.6647C35.4608 67.0962 34.8868 67.3337 34.276 67.3337H8.37862C7.11858 67.3337 6.09361 66.3085 6.09361 65.0487C6.09361 64.4379 6.33111 63.8639 6.76255 63.4324ZM3.04673 74.9507C3.04673 72.4308 5.09697 70.3805 7.6169 70.3805H8.37862H34.2762H35.0379C37.5578 70.3805 39.6081 72.4308 39.6081 74.9507H3.04673Z" fill="#D4A94F"/>
<path d="M76.5823 64.0034C76.0649 63.2016 75.4476 62.4926 74.7473 61.896L67.629 55.6875C67.5736 55.604 67.5093 55.5248 67.4357 55.4512C67.312 55.3277 67.1718 55.2312 67.0229 55.159L62.7181 51.4045L42.793 34.0234C43.6086 33.1707 44.0578 32.0557 44.0578 30.8701C44.0578 29.6486 43.5823 28.5006 42.718 27.6365C42.3411 27.2601 41.9128 26.9641 41.455 26.7473L43.2983 24.904C43.8135 25.0409 44.3429 25.111 44.8728 25.111C46.4329 25.1108 47.9933 24.517 49.1809 23.3293C50.3323 22.1781 50.9664 20.6478 50.9664 19.0203C50.9664 17.3928 50.3323 15.8625 49.1811 14.7112L36.255 1.78544C35.1037 0.634178 33.5733 0.00012207 31.9453 0.00012207C30.3181 0.00012207 28.7882 0.634178 27.637 1.78544C26.046 3.37652 25.5222 5.63563 26.0624 7.66821L7.67068 26.0598C7.16246 25.9247 6.63367 25.8534 6.09346 25.8534C4.46521 25.8534 2.93552 26.487 1.78517 27.6372C-0.590785 30.0131 -0.590785 33.8792 1.78517 36.2553L14.7111 49.1814C15.8992 50.3693 17.4597 50.9633 19.0202 50.9633C20.5808 50.9633 22.1412 50.3693 23.3294 49.1814C24.9204 47.5901 25.4442 45.3312 24.904 43.2986L26.7435 41.4589C26.9646 41.9205 27.2646 42.3464 27.6372 42.7189C28.5004 43.5821 29.648 44.0576 30.8692 44.0576C32.0536 44.0576 33.1682 43.6092 34.0221 42.7945L55.2445 67.1777C55.303 67.2692 55.3713 67.3561 55.4511 67.436C55.4784 67.4632 55.5073 67.4881 55.5361 67.5128L61.8601 74.7787C62.0173 74.9642 62.1853 75.1467 62.3598 75.3212C64.0966 77.0574 66.3908 77.9997 68.7993 77.9997C69.2239 77.9997 69.6525 77.9704 70.0816 77.911C72.9501 77.514 75.4292 75.798 76.8829 73.2023C78.4753 70.3576 78.3568 66.746 76.5823 64.0034ZM29.7916 3.93989C30.3674 3.36418 31.1324 3.047 31.9455 3.047C32.7596 3.047 33.5251 3.36418 34.1007 3.93989L47.0268 16.8658C47.6025 17.4415 47.9195 18.2068 47.9195 19.0204C47.9195 19.8341 47.6025 20.5993 47.0266 21.175C45.8391 22.3629 43.9065 22.3629 42.719 21.175L29.7924 8.24849C29.7921 8.24818 29.792 8.24803 29.7916 8.24772C28.6038 7.06005 28.6038 5.12757 29.7916 3.93989ZM21.1749 47.0269C19.9869 48.2149 18.0535 48.215 16.8656 47.0269L3.93962 34.101C2.75149 32.9128 2.75149 30.9799 3.93962 29.7916C4.51426 29.2168 5.27934 28.9002 6.09346 28.9002C6.90744 28.9002 7.67205 29.2167 8.24654 29.791L21.1748 42.7192C22.3627 43.9067 22.3627 45.8394 21.1749 47.0269ZM27.5889 36.3049L23.3292 40.5648L10.4019 27.6375L27.637 10.402L40.5642 23.3293L36.2967 27.5969C36.2829 27.61 36.2693 27.6228 36.2547 27.6373L27.6415 36.2507C27.6236 36.2682 27.6064 36.2865 27.5889 36.3049ZM33.0285 39.483C33.0255 39.486 33.0226 39.4889 33.0195 39.492L31.9467 40.5648C31.6589 40.8524 31.2764 41.0108 30.869 41.0108C30.4618 41.0108 30.0791 40.8524 29.7915 40.5646C29.5034 40.2767 29.3448 39.8937 29.3448 39.4862C29.3448 39.0873 29.497 38.7121 29.7732 38.4291L38.4265 29.7758C39.0196 29.199 39.9784 29.2062 40.5645 29.7916C40.8524 30.0795 41.011 30.4625 41.011 30.8701C41.011 31.2773 40.8529 31.6592 40.5644 31.947L39.4978 33.0135C39.4905 33.0207 39.4832 33.028 39.476 33.0353L33.0285 39.483ZM36.1832 40.637L40.6356 36.1846L59.487 52.6278L52.6081 59.5069L36.1832 40.637ZM54.6131 61.8107L61.7883 54.6353L64.0898 56.6427L56.6181 64.1146L54.6131 61.8107ZM74.2246 71.714C73.2414 73.4694 71.5792 74.628 69.664 74.8931C67.7533 75.1575 65.876 74.5282 64.5137 73.1665C64.3966 73.0496 64.2845 72.9275 64.18 72.8038C64.1751 72.798 64.1702 72.7922 64.1652 72.7866L58.6229 66.4183L66.3911 58.65L72.7514 64.1979C72.7562 64.2022 72.761 64.2063 72.7661 64.2105C73.2421 64.6153 73.6646 65.1015 74.0231 65.6569C75.1751 67.437 75.2558 69.8715 74.2246 71.714Z" fill="#D4A94F"/>
<path d="M28.7144 15.7883C28.1194 15.1934 27.155 15.1934 26.56 15.7883L20.0963 22.252C19.5014 22.8469 19.5014 23.8115 20.0963 24.4063C20.3938 24.7038 20.7837 24.8525 21.1735 24.8525C21.5634 24.8525 21.9532 24.7037 22.2508 24.4063L28.7144 17.9426C29.3093 17.3479 29.3093 16.3834 28.7144 15.7883Z" fill="#D4A94F"/>
</g>
<defs>
<clipPath id="clip0_1_193">
<rect width="78" height="78" fill="white"/>
</clipPath>
</defs>
</svg>
