<svg width="78" height="78" viewBox="0 0 78 78" fill="none" xmlns="http://www.w3.org/2000/svg">
<g clip-path="url(#clip0_1_135)">
<path d="M76.8574 75.7148H50.8018V64.8928C51.4555 65.0758 52.1435 65.1757 52.8548 65.1757H70.3721C74.5781 65.1757 77.9998 61.7539 77.9998 57.5479C77.9998 56.9168 77.4883 56.4053 76.8573 56.4053H73.705L64.7296 39.7765C65.637 38.9375 66.2065 37.7386 66.2065 36.4088C66.2065 34.2722 64.7376 32.4718 62.756 31.9629V13.5659H65.593V14.2042C65.593 15.6815 67.8781 15.6815 67.8781 14.2042V13.5659H73.5147C77.4481 13.5659 77.4538 7.43757 73.5147 7.43757H67.8781V6.28875C67.8781 4.81147 65.593 4.81147 65.593 6.28875V7.43773H62.756V6.28875C62.756 4.81147 60.4709 4.81147 60.4709 6.28875V7.43773H51.0317V5.03999C51.0317 2.79292 49.2035 0.964793 46.9565 0.964793C46.025 0.964793 45.1661 1.27954 44.479 1.80741C43.7469 0.718301 42.5028 0 41.094 0C39.6851 0 38.4411 0.718301 37.7089 1.80756C37.0218 1.27969 36.1629 0.964945 35.2315 0.964945C33.6995 0.964945 32.3627 1.81502 31.6668 3.0679C31.0122 2.61925 30.2209 2.35615 29.369 2.35615C27.1219 2.35615 25.2938 4.18427 25.2938 6.43134V7.43757H17.5291V6.28875C17.5291 4.81147 15.244 4.81147 15.244 6.28875V7.43773H12.407V6.28875C12.407 4.81147 10.1219 4.81147 10.1219 6.28875V7.43773H4.4853C0.551941 7.43773 0.546152 13.5661 4.4853 13.5661H10.1219V14.2044C10.1219 15.6817 12.407 15.6817 12.407 14.2044V13.5661H15.244V31.9629C13.2623 32.4718 11.7935 34.272 11.7935 36.4088C11.7935 37.7386 12.363 38.9375 13.2705 39.7766L4.29488 56.4053H1.14258C0.51157 56.4053 0 56.9168 0 57.5479C0 61.7538 3.42179 65.1756 7.6277 65.1756H25.1451C25.8564 65.1756 26.5444 65.0756 27.1981 64.8926V75.7148H1.14258C0.51157 75.7148 0 76.2264 0 76.8574C0 77.4884 0.51157 78 1.14258 78H76.8574C77.4884 78 78 77.4884 78 76.8574C78 76.2264 77.4884 75.7148 76.8574 75.7148ZM71.1083 56.4053H68.8108C68.1798 56.4053 67.6682 56.9168 67.6682 57.5479C67.6682 58.1789 68.1798 58.6904 68.8108 58.6904H73.0206C73.0219 58.6904 73.0231 58.6907 73.0245 58.6907C73.0258 58.6907 73.0272 58.6904 73.0286 58.6904H75.5918C75.0672 61.0894 72.926 62.8904 70.3721 62.8904H52.8548C50.3009 62.8904 48.1597 61.0892 47.6352 58.6903H50.1976C50.1992 58.6903 50.2008 58.6906 50.2024 58.6906C50.204 58.6906 50.2053 58.6903 50.2069 58.6903H62.7285V56.4051H52.1185L60.5074 40.8629C61.2446 41.0434 61.9818 41.0434 62.7192 40.8629L71.1083 56.4053ZM29.4834 41.0117H48.5168V46.2814H29.4834V41.0117ZM63.9215 36.4086C63.9215 37.6793 62.8861 38.7131 61.6136 38.7131C60.3411 38.7131 59.3056 37.6793 59.3056 36.4086C59.3056 35.1379 60.3409 34.1041 61.6136 34.1041C62.8863 34.1041 63.9215 35.1379 63.9215 36.4086ZM60.471 31.9628C58.4893 32.4716 57.0204 34.2719 57.0204 36.4086C57.0204 37.7384 57.5899 38.9374 58.4974 39.7765L50.8019 54.0339V39.8691C50.8019 39.2381 50.2903 38.7265 49.6593 38.7265H48.6574C48.5591 36.4635 49.2864 34.2681 50.9061 32.6503C54.5267 29.0341 57.5651 25.3873 57.5651 19.9517V15.3476C57.5651 14.7089 57.4168 14.1044 57.1534 13.5661H60.4712V31.9628H60.471ZM73.5147 9.72288C74.5217 9.72288 74.5217 11.2809 73.5147 11.2809H67.8781V9.72288H73.5147ZM65.593 9.72288V11.2809H62.756V9.72288H65.593ZM60.471 9.72288V11.2809L51.0318 11.276V9.72288H60.471ZM46.9565 3.24995C47.9435 3.24995 48.7465 4.05295 48.7465 5.03999V11.2759H45.1692V4.98286C45.1998 4.02233 45.9888 3.24995 46.9565 3.24995ZM41.094 2.28516C42.081 2.28516 42.884 3.08694 42.884 4.0723L42.8811 11.3223C41.9338 11.5237 41.221 12.3656 41.221 13.3714C41.221 14.4612 41.5126 15.4838 42.0198 16.368C40.8475 17.0758 39.3039 16.2075 39.3039 14.839V4.0723C39.3039 3.08694 40.1069 2.28516 41.094 2.28516ZM35.2315 3.24995C36.1993 3.24995 36.9881 4.02233 37.0186 4.98271V14.083C36.988 15.0433 36.1992 15.8159 35.2315 15.8159C34.2444 15.8159 33.4414 15.0129 33.4414 14.0258V5.03999C33.4414 4.05295 34.2444 3.24995 35.2315 3.24995ZM27.5789 6.43134C27.5789 5.44431 28.3819 4.6413 29.369 4.6413C30.3368 4.6413 31.1257 5.41369 31.1561 6.37421V12.6919C31.1255 13.6523 30.3367 14.4248 29.369 14.4248C28.3819 14.4248 27.5789 13.6218 27.5789 12.6348V6.43134ZM25.2938 9.72288V11.2809H17.5291V9.72288H25.2938ZM4.4853 11.2807C3.47831 11.2807 3.47831 9.72273 4.4853 9.72273H10.1219V11.2807H4.4853ZM12.407 11.2807V9.72288H15.244V11.2809H12.407V11.2807ZM25.2938 13.5659V18.9033C25.2938 19.5343 25.8054 20.0458 26.4364 20.0458C27.0674 20.0458 27.5789 19.5343 27.5789 18.9033V16.2945C28.1196 16.5601 28.7272 16.7098 29.369 16.7098C30.2209 16.7098 31.0122 16.4467 31.6668 15.9981C32.3627 17.2509 33.6994 18.101 35.2315 18.101C36.1949 18.101 37.0806 17.7643 37.779 17.2033C38.5189 18.2362 39.7285 18.9112 41.094 18.9112C41.9765 18.9112 42.8244 18.6257 43.5203 18.1102C44.5531 18.9286 45.8573 19.4191 47.2749 19.4191H49.1031V19.4442C44.1174 20.0123 40.2318 24.2525 40.2318 29.3822C40.2318 30.0132 40.7434 30.5248 41.3744 30.5248C42.0054 30.5248 42.517 30.0132 42.517 29.3822C42.517 25.1267 45.984 21.6647 50.2457 21.6647C50.8767 21.6647 51.3883 21.1531 51.3883 20.5221V18.2765C51.3883 17.6455 50.8767 17.1339 50.2457 17.1339H47.2749C45.2604 17.1339 43.6102 15.5481 43.5109 13.561C46.8692 13.561 50.2271 13.5659 53.5852 13.5659C54.5278 13.616 55.2798 14.3947 55.2798 15.3474V19.9515C55.2798 24.7653 52.4678 27.8603 49.2911 31.0333C47.2183 33.1034 46.3446 35.8482 46.3721 38.7265H31.5379C31.622 36.1794 30.7708 33.8164 29.3723 31.7108C28.199 29.8851 27.5788 27.7736 27.5788 25.604C27.5788 24.9729 27.0672 24.4614 26.4362 24.4614C25.8052 24.4614 25.2936 24.9729 25.2936 25.604C25.2936 28.2157 26.041 30.7574 27.4551 32.9542C28.5916 34.713 29.3397 36.605 29.2527 38.7265H28.3407C27.7097 38.7265 27.1981 39.2381 27.1981 39.8691V54.0339L19.5026 39.7765C20.4101 38.9375 20.9796 37.7384 20.9796 36.4086C20.9796 34.272 19.5107 32.4716 17.529 31.9628V13.5659H25.2938ZM16.3866 34.1041C17.6592 34.1041 18.6946 35.1379 18.6946 36.4086C18.6946 37.6793 17.6592 38.7131 16.3866 38.7131C15.1139 38.7131 14.0787 37.6793 14.0787 36.4086C14.0787 35.1379 15.1139 34.1041 16.3866 34.1041ZM15.2807 40.863C16.0179 41.0434 16.7551 41.0434 17.4923 40.863L25.8814 56.4054H6.89173L15.2807 40.863ZM7.6277 62.8905C5.07381 62.8905 2.93262 61.0894 2.4081 58.6906H4.97174C4.97296 58.6906 4.97418 58.6907 4.97539 58.6907C4.97646 58.6907 4.97768 58.6906 4.97875 58.6906H27.7941C27.7951 58.6906 27.7963 58.6907 27.7974 58.6907C27.7986 58.6907 27.7998 58.6906 27.8011 58.6906H30.3647C29.8402 61.0895 27.699 62.8905 25.1451 62.8905H7.6277ZM29.4834 75.7148V63.8168C31.4692 62.4384 32.7729 60.143 32.7729 57.5479C32.7729 56.9168 32.2614 56.4053 31.6304 56.4053H29.4834V48.5664H48.5168V56.4053H46.3698C45.7388 56.4053 45.2272 56.9168 45.2272 57.5479C45.2272 60.143 46.531 62.4384 48.5168 63.8168V75.7148H29.4834Z" fill="#D4A94F"/>
</g>
<defs>
<clipPath id="clip0_1_135">
<rect width="78" height="78" fill="white"/>
</clipPath>
</defs>
</svg>
