<svg width="78" height="78" viewBox="0 0 78 78" fill="none" xmlns="http://www.w3.org/2000/svg">
<g clip-path="url(#clip0_1_182)">
<path d="M76.7793 62.2505L61.4104 46.8818V33.8639C61.9131 34.175 62.4843 34.3334 63.0566 34.3334C63.8584 34.3334 64.66 34.0283 65.2705 33.4178L67.4429 31.2452C68.6575 30.08 68.6574 27.983 67.443 26.8177L61.4104 20.785V3.22207C61.4104 1.44544 59.9649 0 58.1883 0H7.33916C5.56253 0 4.11709 1.44544 4.11709 3.22207V69.651H2.47011C1.18326 69.651 0.136353 70.6979 0.136353 71.9847V75.6661C0.136353 76.9529 1.18326 77.9998 2.47011 77.9998H41.8679C43.2775 77.9998 44.4242 76.8532 44.4242 75.4435V71.9847C44.4242 70.6979 43.3773 69.651 42.0905 69.651H34.8861V67.6964C34.8861 66.4095 33.8392 65.3626 32.5524 65.3626H12.0083C10.7215 65.3626 9.67444 66.4095 9.67444 67.6964V69.651H6.4021V3.22207C6.4021 2.70532 6.82241 2.28516 7.33901 2.28516H58.1882C58.7049 2.28516 59.1251 2.70547 59.1251 3.22207V18.4999L51.6616 11.0364C50.4407 9.81581 48.4548 9.81596 47.234 11.0364L45.0615 13.209C43.8097 14.4561 43.8502 16.5083 45.1384 17.7138L25.2786 37.5739C24.0731 36.2857 22.0208 36.2453 20.7739 37.4968L18.6012 39.6694C17.3804 40.8903 17.3804 42.8764 18.6012 44.0971L34.3825 59.8784C34.9929 60.4887 35.7947 60.7938 36.5962 60.7938C37.398 60.7938 38.1996 60.4887 38.81 59.8784V59.8783L40.9826 57.7057C42.2032 56.485 42.2032 54.4987 40.9826 53.2781L40.9057 53.2012L43.5377 50.5691L47.3538 46.7531L59.1254 58.5245V71.7311C59.1254 72.2478 58.7051 72.668 58.1885 72.668H48.7173C48.0861 72.668 47.5747 73.1794 47.5747 73.8105C47.5747 74.4417 48.0861 74.9531 48.7173 74.9531H58.1885C59.9651 74.9531 61.4105 73.5077 61.4105 71.7311V60.8097L69.8155 69.2145C71.2615 70.6604 73.6142 70.6604 75.0604 69.2145L76.7794 67.4958C78.2252 66.0497 78.2252 63.6966 76.7793 62.2505ZM42.0202 75.7148H2.47011C2.33361 75.7241 2.44329 71.9361 2.47011 71.9361H42.0905C42.1173 71.9361 42.1698 75.7148 42.0202 75.7148ZM11.9596 67.6964C11.9596 67.6696 32.601 67.6696 32.601 67.6964V69.651H11.9596V67.6964ZM54.3177 39.7891L59.1254 34.9815V44.5967L54.3177 39.7891ZM43.3147 22.7696L55.7101 35.1647L42.7298 48.1452L30.3344 35.7499L43.3147 22.7696ZM47.8932 20.4683C48.3396 20.9144 49.0629 20.9144 49.5091 20.4683C49.9553 20.0219 49.9553 19.2986 49.5091 18.8524L46.6775 16.0208C46.3477 15.6911 46.3477 15.1545 46.6775 14.8249L48.8501 12.6523C49.1798 12.3225 49.7162 12.3226 50.0458 12.6523L65.8271 28.4336C66.1553 28.7483 66.1553 29.3146 65.8271 29.6295L63.6546 31.8021C63.3246 32.1317 62.7882 32.1316 62.4588 31.8021L53.3883 22.7315C52.9419 22.2855 52.2186 22.2855 51.7724 22.7315C51.3261 23.1779 51.3261 23.9012 51.7724 24.3474L59.1499 31.725L57.3259 33.549L44.9306 21.1538L46.7546 19.3298L47.8932 20.4683ZM39.3667 56.0899L37.1941 58.2625C36.8641 58.5922 36.3277 58.592 35.9984 58.2625L20.2171 42.4812C19.8873 42.1515 19.8873 41.615 20.2171 41.2853L22.3897 39.1127C22.7193 38.7831 23.2557 38.7831 23.5854 39.1127L39.3667 54.894C39.6964 55.2237 39.6964 55.7601 39.3667 56.0899ZM26.8943 39.1898L28.7183 37.3658L41.1138 49.7611L39.2898 51.5851L26.8943 39.1898ZM75.1635 65.8797L73.4445 67.5984C72.8898 68.1537 71.9867 68.1539 71.4314 67.5984L48.9697 45.1372L52.7018 41.405L75.1634 63.8666C75.7184 64.4216 75.7184 65.3247 75.1635 65.8797Z" fill="#D4A94F"/>
<path d="M43.8886 8.65329C43.8886 6.58477 42.2056 4.90198 40.1371 4.90198H25.6355C23.567 4.90198 21.884 6.58477 21.884 8.65329C21.884 10.7218 23.567 12.4048 25.6355 12.4048H40.1371C42.2056 12.4048 43.8886 10.7218 43.8886 8.65329ZM24.169 8.65329C24.169 7.8448 24.8267 7.18713 25.6353 7.18713H40.1369C40.9456 7.18713 41.6033 7.8448 41.6033 8.65329C41.6033 9.46193 40.9456 10.1196 40.1369 10.1196H25.6353C24.8269 10.1196 24.169 9.46178 24.169 8.65329Z" fill="#D4A94F"/>
<path d="M37.933 19.1921C37.933 18.561 37.4216 18.0496 36.7904 18.0496H24.3182C23.687 18.0496 23.1756 18.561 23.1756 19.1921C23.1756 19.8233 23.687 20.3347 24.3182 20.3347H36.7904C37.4216 20.3347 37.933 19.8233 37.933 19.1921Z" fill="#D4A94F"/>
<path d="M24.3182 24.1409C23.687 24.1409 23.1756 24.6523 23.1756 25.2834C23.1756 25.9146 23.687 26.426 24.3182 26.426H30.9975C31.6287 26.426 32.1401 25.9146 32.1401 25.2834C32.1401 24.6523 31.6287 24.1409 30.9975 24.1409H24.3182Z" fill="#D4A94F"/>
<path d="M20.4814 61.3032H30.5542C31.1854 61.3032 31.6968 60.7918 31.6968 60.1606C31.6968 59.5295 31.1854 59.0181 30.5542 59.0181H20.4814C19.8502 59.0181 19.3388 59.5295 19.3388 60.1606C19.3388 60.7918 19.8504 61.3032 20.4814 61.3032Z" fill="#D4A94F"/>
<path d="M12.5906 59.0181C11.9595 59.0181 11.4481 59.5295 11.4481 60.1606C11.4481 60.7918 11.9595 61.3032 12.5906 61.3032H15.104C15.7352 61.3032 16.2466 60.7918 16.2466 60.1606C16.2466 59.5295 15.7352 59.0181 15.104 59.0181H12.5906Z" fill="#D4A94F"/>
<path d="M22.6977 54.0693C22.6977 53.4382 22.1863 52.9268 21.5552 52.9268H12.5906C11.9595 52.9268 11.4481 53.4382 11.4481 54.0693C11.4481 54.7005 11.9595 55.2119 12.5906 55.2119H21.5552C22.1863 55.2119 22.6977 54.7005 22.6977 54.0693Z" fill="#D4A94F"/>
<path d="M12.7171 26.6863C13.3409 27.0944 13.8334 27.2943 14.3752 27.3866V27.5179C14.3752 28.1491 14.8866 28.6605 15.5177 28.6605C16.1489 28.6605 16.6603 28.1491 16.6603 27.5179V27.2603C17.9083 26.8194 18.7072 25.7 18.8935 24.5918C19.1545 23.0393 18.314 21.637 16.802 21.1027C16.0572 20.8394 15.2364 20.5236 14.7937 20.1766C14.7556 20.1467 14.7009 20.0038 14.7402 19.7944C14.7591 19.6947 14.8453 19.3619 15.1686 19.2645C15.9213 19.0381 16.3998 19.4114 16.4521 19.4548L16.8802 19.6582C16.8802 19.6582 17.9568 20.1416 18.3303 19.1529C18.6291 18.362 17.9819 17.7577 17.9819 17.7577C17.7199 17.5161 17.2589 17.2236 16.6602 17.0525V16.937C16.6602 16.3059 16.1488 15.7944 15.5176 15.7944C14.8864 15.7944 14.375 16.3059 14.375 16.937V17.1224C13.4085 17.4675 12.6934 18.3162 12.4946 19.3712C12.3015 20.3958 12.6423 21.3932 13.3834 21.9747C14.0843 22.5244 15.0747 22.916 16.0403 23.2573C16.6334 23.4669 16.6935 23.8927 16.6398 24.2131C16.5625 24.6724 16.1762 25.1684 15.5098 25.173C14.7295 25.1779 14.5417 25.1494 13.9678 24.774C13.4396 24.4282 12.7315 24.5766 12.3862 25.1048C12.041 25.6326 12.1889 26.3409 12.7171 26.6863Z" fill="#D4A94F"/>
</g>
<defs>
<clipPath id="clip0_1_182">
<rect width="78" height="78" fill="white"/>
</clipPath>
</defs>
</svg>
