<svg width="78" height="78" viewBox="0 0 78 78" fill="none" xmlns="http://www.w3.org/2000/svg">
<g clip-path="url(#clip0_1_227)">
<path d="M53.625 70.6875H50.5781V38.2505C51.3268 38.0779 52.0312 37.7508 52.6462 37.2902C53.2611 36.8295 53.773 36.2454 54.149 35.5753C57.9387 36.7573 61.2823 39.0578 63.7406 42.1748C64.4626 43.077 65.4746 43.7014 66.6047 43.942C66.8641 43.9883 67.1272 44.0107 67.3908 44.0091C68.1447 44.0109 68.8865 43.8198 69.5457 43.454C70.2049 43.0881 70.7595 42.5597 71.1567 41.9189C71.2471 41.7833 71.3094 41.6308 71.3399 41.4707C71.3703 41.3105 71.3683 41.1459 71.334 40.9865C71.2997 40.8271 71.2338 40.6762 71.1401 40.5428C71.0465 40.4094 70.927 40.2961 70.7888 40.2096C70.6506 40.1232 70.4964 40.0654 70.3354 40.0396C70.1744 40.0138 70.0099 40.0205 69.8516 40.0594C69.6933 40.0984 69.5444 40.1687 69.4137 40.2661C69.2831 40.3636 69.1733 40.4864 69.0909 40.627C68.8781 40.9676 68.5682 41.2367 68.2011 41.3997C67.834 41.5626 67.4266 41.6118 67.0312 41.5411C66.4839 41.4031 65.9962 41.0908 65.6418 40.6514C62.8767 37.1428 59.1112 34.5566 54.8437 33.2353C54.8437 33.1256 54.8437 33.0159 54.8437 32.9062C54.843 31.664 54.4207 30.4589 53.6457 29.488C52.8708 28.5171 51.7892 27.8381 50.5781 27.562V25.5938C50.5781 25.2705 50.4497 24.9605 50.2211 24.732C49.9926 24.5034 49.6826 24.375 49.3593 24.375C49.0361 24.375 48.7261 24.5034 48.4976 24.732C48.269 24.9605 48.1406 25.2705 48.1406 25.5938V27.562C47.1344 27.7918 46.2136 28.3009 45.4838 29.0307C44.754 29.7605 44.2449 30.6813 44.0151 31.6875C40.1818 31.7043 36.4332 32.8164 33.2109 34.8928C32.7281 35.1847 32.1633 35.3109 31.6022 35.2523C31.2055 35.1854 30.8383 35 30.549 34.7205C30.2597 34.441 30.0617 34.0804 29.9812 33.6862C29.9554 33.5231 29.8967 33.367 29.8087 33.2272C29.7206 33.0875 29.6051 32.9671 29.4692 32.8734C29.3332 32.7797 29.1796 32.7145 29.0177 32.682C28.8558 32.6494 28.6889 32.6501 28.5273 32.684C28.3657 32.7179 28.2126 32.7843 28.0774 32.8792C27.9423 32.974 27.8278 33.0954 27.7409 33.2358C27.654 33.3763 27.5966 33.5329 27.5722 33.6963C27.5477 33.8596 27.5567 34.0262 27.5986 34.1859C27.7769 35.0566 28.2136 35.8533 28.8518 36.4719C29.4899 37.0904 30.2998 37.5022 31.1756 37.6533C31.4069 37.6947 31.6414 37.7151 31.8764 37.7142C32.7915 37.7013 33.687 37.4469 34.4723 36.9769C37.314 35.131 40.6266 34.141 44.0151 34.125C44.2449 35.1312 44.754 36.052 45.4838 36.7818C46.2136 37.5116 47.1344 38.0207 48.1406 38.2505V70.6875H45.0937C43.4776 70.6875 41.9276 71.3295 40.7848 72.4723C39.642 73.6151 39 75.1651 39 76.7812C39 77.1045 39.1284 77.4145 39.3569 77.643C39.5855 77.8716 39.8955 78 40.2187 78H58.5C58.8232 78 59.1332 77.8716 59.3618 77.643C59.5903 77.4145 59.7187 77.1045 59.7187 76.7812C59.7187 75.1651 59.0767 73.6151 57.9339 72.4723C56.7911 71.3295 55.2411 70.6875 53.625 70.6875ZM46.3125 32.9062C46.3125 32.3036 46.4912 31.7146 46.826 31.2135C47.1608 30.7124 47.6366 30.3219 48.1934 30.0913C48.7501 29.8607 49.3627 29.8004 49.9538 29.9179C50.5448 30.0355 51.0877 30.3257 51.5138 30.7518C51.9399 31.1779 52.2301 31.7208 52.3477 32.3118C52.4652 32.9029 52.4049 33.5155 52.1743 34.0722C51.9437 34.629 51.5532 35.1048 51.0521 35.4396C50.551 35.7744 49.962 35.9531 49.3593 35.9531C48.5513 35.9531 47.7763 35.6321 47.2049 35.0607C46.6335 34.4893 46.3125 33.7143 46.3125 32.9062ZM41.6447 75.5625C41.8968 74.8493 42.3639 74.2319 42.9817 73.7954C43.5994 73.3588 44.3373 73.1246 45.0937 73.125H53.625C54.3814 73.1246 55.1193 73.3588 55.737 73.7954C56.3548 74.2319 56.8219 74.8493 57.074 75.5625H41.6447Z" fill="#D4A94F"/>
<path d="M21.4683 59.0667C23.2355 62.4243 27.1294 64.5937 31.3828 64.5937C35.6363 64.5937 39.5302 62.4243 41.2974 59.0667C41.3766 58.9122 41.422 58.7426 41.4304 58.5692C41.4388 58.3958 41.4101 58.2226 41.3461 58.0612C41.3357 58.0261 41.3235 57.9915 41.3095 57.9576L32.7783 40.8951C32.6774 40.6921 32.5219 40.5212 32.3292 40.4017C32.1365 40.2822 31.9143 40.2188 31.6875 40.2187C31.4639 40.216 31.2439 40.2748 31.0515 40.3887C30.8591 40.5026 30.7018 40.6673 30.5967 40.8647L21.4561 57.9272C21.4551 57.9475 21.4551 57.9678 21.4561 57.9881C21.3752 58.1568 21.3343 58.3418 21.3364 58.5288C21.3385 58.7159 21.3836 58.8999 21.4683 59.0667ZM31.3828 62.1562C29.0171 62.1902 26.7279 61.3181 24.9844 59.7187H37.7813C36.0377 61.3181 33.7486 62.1902 31.3828 62.1562ZM31.651 44.0883L38.2444 57.2812H24.5822L31.651 44.0883Z" fill="#D4A94F"/>
<path d="M77.8782 64.0818C77.8792 64.0615 77.8792 64.0412 77.8782 64.0209L68.7375 46.9584C68.632 46.7601 68.4737 46.5948 68.2801 46.4808C68.0866 46.3668 67.8653 46.3086 67.6407 46.3124C67.417 46.3159 67.1987 46.3809 67.0095 46.5002C66.8203 46.6195 66.6677 46.7885 66.5682 46.9888L58.0369 64.0513C58.0342 64.0736 58.0342 64.0961 58.0369 64.1184C57.9599 64.2813 57.9199 64.4592 57.9199 64.6394C57.9199 64.8196 57.9599 64.9975 58.0369 65.1604C59.8041 68.5181 63.698 70.6874 67.9514 70.6874C72.2049 70.6874 76.0988 68.5181 77.866 65.1604C77.9506 64.9936 77.9958 64.8096 77.9979 64.6225C78 64.4355 77.959 64.2505 77.8782 64.0818ZM67.6772 50.182L74.746 63.3749H61.0838L67.6772 50.182ZM67.9453 68.2499C65.5796 68.2839 63.2904 67.4118 61.5469 65.8124H74.3438C72.6003 67.4118 70.3111 68.2839 67.9453 68.2499Z" fill="#D4A94F"/>
<path d="M45.2887 64.7278C45.5494 64.5376 45.724 64.2519 45.7742 63.9332C45.8245 63.6144 45.7463 63.2888 45.5569 63.0277C45.3661 62.7732 45.0835 62.6033 44.7692 62.5544C44.455 62.5054 44.1341 62.5812 43.875 62.7656C41.8214 64.2708 39.7373 65.6236 37.7142 66.9277C33.9909 69.3652 30.8039 71.4066 29.1403 73.5881C27.4828 71.4066 24.2653 69.3225 20.5725 66.9277C15.533 63.6675 9.8292 59.9747 6.3253 55.0327C1.26139 47.9273 2.48014 18.3178 2.79092 12.1875C6.00233 12.1022 15.0881 11.6817 20.6212 9.54281C24.6309 7.98891 27.6473 4.94203 29.1159 3.21141C30.5906 4.94203 33.607 7.98891 37.6167 9.54281C43.1498 11.6817 52.2417 12.1022 55.4409 12.1875C55.5689 14.6737 55.8492 20.9808 55.7944 28.0312C55.7944 28.3545 55.9228 28.6645 56.1513 28.893C56.3799 29.1216 56.6899 29.25 57.0131 29.25C57.3363 29.25 57.6463 29.1216 57.8749 28.893C58.1035 28.6645 58.2319 28.3545 58.2319 28.0312C58.2989 18.8541 57.8175 10.9688 57.8114 10.8713C57.7927 10.5609 57.6561 10.2693 57.4296 10.0564C57.203 9.84338 56.9036 9.72507 56.5926 9.72563C56.4708 9.72563 44.722 9.64031 38.482 7.22719C33.5156 5.31984 30.1519 0.566719 30.1153 0.517969C30.0032 0.358494 29.8545 0.228227 29.6817 0.1381C29.5089 0.0479735 29.3169 0.000615344 29.122 0C28.9271 0.000615344 28.7352 0.0479735 28.5623 0.1381C28.3895 0.228227 28.2408 0.358494 28.1287 0.517969C28.0922 0.566719 24.7101 5.31984 19.7498 7.22109C13.4976 9.6525 1.74889 9.75 1.63311 9.75C1.32216 9.74944 1.02275 9.86776 0.79618 10.0807C0.569611 10.2937 0.433017 10.5852 0.41436 10.8956C0.329047 12.3886 -1.78548 47.8481 4.30827 56.4403C8.08639 61.7602 14.0034 65.5809 19.2197 68.9691C23.6864 71.8575 27.8972 74.5875 27.8972 76.7812C27.8972 77.1045 28.0256 77.4145 28.2541 77.643C28.4827 77.8716 28.7927 78 29.1159 78C29.4392 78 29.7491 77.8716 29.9777 77.643C30.2063 77.4145 30.3347 77.1045 30.3347 76.7812C30.3347 74.5875 34.5515 71.8575 39.0183 68.9691C41.0658 67.6406 43.1803 66.2695 45.2887 64.7278Z" fill="#D4A94F"/>
</g>
<defs>
<clipPath id="clip0_1_227">
<rect width="78" height="78" fill="white"/>
</clipPath>
</defs>
</svg>
