<svg width="78" height="78" viewBox="0 0 78 78" fill="none" xmlns="http://www.w3.org/2000/svg">
<path d="M74.8191 30.5662L58.5 23.5706V12.1875C58.4976 11.8644 58.3711 11.5546 58.1466 11.3222L49.6153 2.79094C49.3829 2.56645 49.0731 2.43991 48.75 2.4375H6.09375C5.12494 2.44039 4.19664 2.82653 3.51159 3.51159C2.82653 4.19664 2.44039 5.12494 2.4375 6.09375V71.9062C2.44039 72.8751 2.82653 73.8034 3.51159 74.4884C4.19664 75.1735 5.12494 75.5596 6.09375 75.5625H54.8438C55.8126 75.5596 56.7409 75.1735 57.4259 74.4884C58.111 73.8034 58.4971 72.8751 58.5 71.9062V68.8716L64.8497 64.35C68.1595 61.977 70.8573 58.8505 72.72 55.2288C74.5828 51.6071 75.5571 47.5942 75.5625 43.5216V31.6875C75.5623 31.4483 75.4917 31.2144 75.3595 31.015C75.2273 30.8156 75.0394 30.6595 74.8191 30.5662ZM49.9688 6.59344L54.3441 10.9688H49.9688V6.59344ZM56.0625 71.9062C56.0625 72.2295 55.9341 72.5395 55.7055 72.768C55.477 72.9966 55.167 73.125 54.8438 73.125H6.09375C5.77052 73.125 5.46052 72.9966 5.23196 72.768C5.0034 72.5395 4.875 72.2295 4.875 71.9062V6.09375C4.875 5.77052 5.0034 5.46052 5.23196 5.23196C5.46052 5.0034 5.77052 4.875 6.09375 4.875H47.5312V12.1875C47.5312 12.5107 47.6597 12.8207 47.8882 13.0493C48.1168 13.2778 48.4268 13.4062 48.75 13.4062H56.0625V23.5706L48.2381 26.9222L42.9122 21.5962C43.4974 21.0521 43.8436 20.2985 43.875 19.5C43.875 18.0619 42.6806 17.1234 41.73 16.3678C41.3011 16.0776 40.9224 15.7195 40.6087 15.3075C40.5135 14.7624 40.5218 14.2042 40.6331 13.6622C40.7672 12.4069 40.9256 10.9931 39.9506 10.0181C38.9756 9.04313 37.5497 9.20156 36.3066 9.33562C35.7686 9.44701 35.2145 9.45528 34.6734 9.36C34.2543 9.05055 33.8915 8.67126 33.6009 8.23875C32.8453 7.27594 31.9069 6.09375 30.4688 6.09375C29.0306 6.09375 28.0922 7.28813 27.3366 8.23875C27.0464 8.66763 26.6883 9.04634 26.2762 9.36C25.7311 9.45521 25.173 9.44695 24.6309 9.33562C23.3756 9.20156 21.9619 9.04313 20.9869 10.0181C20.0119 10.9931 20.1703 12.4069 20.3044 13.6622C20.4158 14.2001 20.424 14.7543 20.3288 15.2953C20.0193 15.7145 19.64 16.0773 19.2075 16.3678C18.2447 17.1234 17.0625 18.0619 17.0625 19.5C17.0939 20.2985 17.4401 21.0521 18.0253 21.5962L10.6397 28.9819C10.4783 29.1453 10.3663 29.3509 10.3167 29.5752C10.2671 29.7995 10.2819 30.0332 10.3594 30.2494C10.4338 30.4659 10.5686 30.6566 10.7478 30.7991C10.927 30.9416 11.1432 31.03 11.3709 31.0537L18.1594 31.8094L18.915 38.5978C18.9388 38.8255 19.0271 39.0417 19.1696 39.2209C19.3121 39.4001 19.5029 39.5349 19.7194 39.6094C19.8481 39.6572 19.9842 39.6819 20.1216 39.6825C20.4453 39.6834 20.7563 39.5564 20.9869 39.3291L28.3725 31.9434C28.6319 32.2455 28.9535 32.488 29.3153 32.6542C29.6771 32.8205 30.0706 32.9065 30.4688 32.9065C30.8669 32.9065 31.2604 32.8205 31.6222 32.6542C31.984 32.488 32.3056 32.2455 32.565 31.9434L39 38.3662V43.5216C39.0038 44.454 39.0567 45.3856 39.1584 46.3125H9.75V48.75H39.5484C39.7313 49.5788 39.9384 50.3831 40.1822 51.1875H9.75V53.625H41.0963C41.4566 54.4575 41.8594 55.2711 42.3028 56.0625H9.75V58.5H43.8628C44.4746 59.3557 45.1423 60.1699 45.8616 60.9375H9.75V63.375H48.4453C48.8597 63.7041 49.2863 64.0331 49.7128 64.35L56.0625 68.8716V71.9062ZM20.9869 28.9819C21.9619 29.9569 23.3756 29.7984 24.6309 29.6644C25.1695 29.5592 25.7226 29.5509 26.2641 29.64C26.4625 29.7503 26.6366 29.8995 26.7759 30.0788L21.06 35.8069L20.475 30.5662C20.4437 30.2926 20.3207 30.0376 20.1259 29.8428C19.9312 29.6481 19.6762 29.525 19.4025 29.4938L14.1619 28.9087L19.89 23.1928C20.0683 23.3283 20.2175 23.4982 20.3288 23.6925C20.424 24.2376 20.4157 24.7958 20.3044 25.3378C20.1703 26.5931 20.0119 28.0069 20.9869 28.9819ZM25.7522 27.1294C25.2875 27.1417 24.8237 27.1783 24.3628 27.2391C23.8201 27.3443 23.2631 27.3526 22.7175 27.2634C22.6171 26.7151 22.6212 26.1527 22.7297 25.6059C22.921 24.6622 22.8707 23.6854 22.5834 22.7663C22.1453 21.9368 21.5037 21.2323 20.7188 20.7188C20.3166 20.4019 19.5 19.7559 19.5 19.5C19.5 19.2441 20.3166 18.5981 20.7188 18.2812C21.5037 17.7677 22.1453 17.0632 22.5834 16.2337C22.8707 15.3146 22.921 14.3378 22.7297 13.3941C22.6245 12.8514 22.6162 12.2943 22.7053 11.7488C23.2536 11.6483 23.816 11.6525 24.3628 11.7609C25.3066 11.9523 26.2834 11.902 27.2025 11.6147C28.0319 11.1766 28.7364 10.5349 29.25 9.75C29.5669 9.34781 30.2128 8.53125 30.4688 8.53125C30.7247 8.53125 31.3706 9.34781 31.6875 9.75C32.2011 10.5349 32.9056 11.1766 33.735 11.6147C34.6541 11.902 35.6309 11.9523 36.5747 11.7609C37.1174 11.6557 37.6744 11.6475 38.22 11.7366C38.3204 12.2849 38.3163 12.8473 38.2078 13.3941C38.0165 14.3378 38.0668 15.3146 38.3541 16.2337C38.7922 17.0632 39.4338 17.7677 40.2188 18.2812C40.6209 18.5981 41.4375 19.2441 41.4375 19.5C41.4375 19.7559 40.6209 20.4019 40.2188 20.7188C39.4338 21.2323 38.7922 21.9368 38.3541 22.7663C38.0668 23.6854 38.0165 24.6622 38.2078 25.6059C38.313 26.1486 38.3213 26.7057 38.2322 27.2513C37.6833 27.3455 37.1221 27.3414 36.5747 27.2391C35.6309 27.0477 34.6541 27.098 33.735 27.3853C32.9056 27.8234 32.2011 28.4651 31.6875 29.25C31.3706 29.6522 30.7247 30.4688 30.4688 30.4688C30.2128 30.4688 29.5669 29.6522 29.25 29.25C28.7364 28.4651 28.0319 27.8234 27.2025 27.3853C26.7412 27.2032 26.2479 27.1161 25.7522 27.1294ZM34.6613 29.64C35.2064 29.5448 35.7645 29.5531 36.3066 29.6644C37.5497 29.7984 38.9756 29.9569 39.9506 28.9819C40.9256 28.0069 40.7672 26.5931 40.6331 25.3378C40.5217 24.7999 40.5135 24.2457 40.6087 23.7047C40.7191 23.5063 40.8683 23.3322 41.0475 23.1928L45.825 27.9581L39.7434 30.5662C39.5232 30.6595 39.3352 30.8156 39.203 31.015C39.0708 31.2144 39.0002 31.4483 39 31.6875V34.9294L34.1616 30.0788C34.297 29.9005 34.467 29.7513 34.6613 29.64ZM73.125 43.5216C73.122 47.2072 72.2404 50.839 70.5533 54.1158C68.8661 57.3927 66.422 60.22 63.4238 62.3634L57.2812 66.7509L51.1387 62.3634C48.1405 60.22 45.6964 57.3927 44.0092 54.1158C42.3221 50.839 41.4405 47.2072 41.4375 43.5216V32.4919L57.2812 25.7034L73.125 32.4919V43.5216Z" fill="#D4A94F"/>
<path d="M56.8291 29.3365L44.6416 34.2115C44.4153 34.3019 44.2212 34.4581 44.0846 34.66C43.9479 34.8618 43.8749 35.1 43.875 35.3437V43.034C43.8673 46.1425 44.5628 49.2125 45.9093 52.0143C47.2558 54.816 49.2186 57.277 51.6506 59.2129L56.5195 63.1129C56.7357 63.286 57.0043 63.3803 57.2813 63.3803C57.5582 63.3803 57.8268 63.286 58.043 63.1129L62.9119 59.2129C65.3439 57.277 67.3067 54.816 68.6532 52.0143C69.9997 49.2125 70.6952 46.1425 70.6875 43.034V35.3437C70.6876 35.1 70.6146 34.8618 70.4779 34.66C70.3413 34.4581 70.1473 34.3019 69.9209 34.2115L57.7334 29.3365C57.4431 29.2205 57.1194 29.2205 56.8291 29.3365ZM68.25 36.1688V43.034C68.2566 45.7767 67.6429 48.4853 66.4546 50.9572C65.2664 53.4291 63.5344 55.6002 61.3884 57.308L57.2813 60.5962L53.1741 57.3056C51.0284 55.598 49.2966 53.4273 48.1084 50.9558C46.9202 48.4844 46.3062 45.7763 46.3125 43.034V36.1688L57.2813 31.7813L68.25 36.1688Z" fill="#D4A94F"/>
<path d="M52.0492 45.4508L50.3258 47.1741L53.9821 50.8303C54.2106 51.0589 54.5205 51.1874 54.8437 51.1874H54.884C55.0509 51.182 55.2149 51.1423 55.3659 51.0708C55.5168 50.9993 55.6515 50.8976 55.7615 50.7718L64.2927 41.0218L62.4573 39.418L54.7791 48.193L52.0492 45.4508Z" fill="#D4A94F"/>
<path d="M36.5625 19.5C36.5625 18.2948 36.2051 17.1166 35.5355 16.1145C34.8659 15.1124 33.9142 14.3313 32.8007 13.8701C31.6872 13.4089 30.462 13.2882 29.2799 13.5233C28.0978 13.7585 27.012 14.3388 26.1598 15.1911C25.3076 16.0433 24.7272 17.1291 24.4921 18.3112C24.257 19.4932 24.3776 20.7185 24.8389 21.832C25.3001 22.9455 26.0811 23.8972 27.0832 24.5668C28.0854 25.2364 29.2635 25.5938 30.4688 25.5938C32.0843 25.5918 33.6332 24.9492 34.7755 23.8068C35.9179 22.6644 36.5606 21.1156 36.5625 19.5ZM26.8125 19.5C26.8125 18.7769 27.0269 18.07 27.4287 17.4687C27.8304 16.8674 28.4015 16.3988 29.0696 16.1221C29.7377 15.8453 30.4728 15.7729 31.1821 15.914C31.8913 16.0551 32.5428 16.4033 33.0541 16.9146C33.5654 17.426 33.9137 18.0775 34.0548 18.7867C34.1958 19.4959 34.1234 20.2311 33.8467 20.8992C33.57 21.5673 33.1013 22.1383 32.5001 22.5401C31.8988 22.9418 31.1919 23.1563 30.4688 23.1563C29.4991 23.1563 28.5691 22.771 27.8834 22.0854C27.1977 21.3997 26.8125 20.4697 26.8125 19.5Z" fill="#D4A94F"/>
</svg>
