<svg width="33" height="33" viewBox="0 0 33 33" fill="none" xmlns="http://www.w3.org/2000/svg">
<path d="M32.8333 16.6022C32.7952 13.4897 31.8682 10.4529 30.1618 7.84948C28.4554 5.24607 26.0407 3.18445 23.202 1.90745C20.363 0.630451 17.2185 0.191248 14.1384 0.641537C11.0584 1.09185 8.17116 2.41289 5.81677 4.44914C3.46236 6.48538 1.73885 9.152 0.849195 12.1349C-0.0404406 15.1179 -0.0591834 18.2929 0.795213 21.2862C1.64961 24.2795 3.34154 26.9661 5.67175 29.03C8.00195 31.094 10.8734 32.449 13.9479 32.9355V21.3593H9.8646V16.6022H13.9479V12.9885C13.8534 12.1482 13.9444 11.2974 14.2148 10.4962C14.4851 9.69498 14.9279 8.96284 15.512 8.35146C16.0962 7.74006 16.8073 7.26434 17.5954 6.95786C18.3834 6.65137 19.2293 6.52158 20.0729 6.57768C21.2975 6.59444 22.5192 6.70365 23.7275 6.90435V10.9877H21.6858C21.3338 10.9433 20.9761 10.9786 20.6397 11.0909C20.303 11.2033 19.9959 11.3898 19.7411 11.6368C19.4863 11.8837 19.2903 12.1848 19.1676 12.5176C19.0447 12.8506 18.9984 13.2069 19.0317 13.5601V16.643H23.5642L22.8292 21.4001H19.0521V32.8335C22.9106 32.2232 26.4227 30.2501 28.9511 27.2722C31.4795 24.2942 32.8568 20.5087 32.8333 16.6022Z" fill="white"/>
</svg>
