<svg width="78" height="78" viewBox="0 0 78 78" fill="none" xmlns="http://www.w3.org/2000/svg">
<g clip-path="url(#clip0_1_175)">
<path d="M65.1659 58.7817C67.1054 57.1338 68.3393 54.6793 68.3393 51.941V48.6278C68.3393 43.6778 64.3121 39.6508 59.3623 39.6508C54.4124 39.6508 50.3855 43.6778 50.3855 48.6278V51.941C50.3855 54.6975 51.6353 57.1665 53.5969 58.8145C50.2069 59.9362 47.1792 62.0234 44.9097 64.867C44.6242 64.7198 44.3343 64.5798 44.0371 64.4536C45.4417 63.119 46.3203 61.2355 46.3203 59.1496C46.3203 55.1132 43.0364 51.8293 39 51.8293C34.9636 51.8293 31.6797 55.1132 31.6797 59.1496C31.6797 61.2258 32.5499 63.1012 33.9431 64.4347C33.6462 64.5594 33.3562 64.6973 33.071 64.8428C30.7929 61.9981 27.7549 59.9131 24.3552 58.7986C26.3061 57.1505 27.5482 54.6886 27.5482 51.9409V48.6276C27.5482 43.6776 23.521 39.6506 18.5712 39.6506C13.6213 39.6506 9.59436 43.6776 9.59436 48.6276V51.9409C9.59436 54.6879 10.836 57.1492 12.7858 58.7972C5.36996 61.2344 0 68.2238 0 76.4447C0 77.2853 0.681463 77.9669 1.52214 77.9669C2.36282 77.9669 3.04428 77.2853 3.04428 76.4447C3.04428 67.8832 10.0098 60.9177 18.5713 60.9177C23.2197 60.9177 27.592 62.996 30.5302 66.5408C27.729 68.9307 25.9476 72.4826 25.9476 76.4447C25.9476 77.2853 26.6291 77.9669 27.4698 77.9669C28.3105 77.9669 28.9919 77.2853 28.9919 76.4447C28.9919 70.9445 33.4666 66.4699 38.9668 66.4699C44.4671 66.4699 48.9417 70.9445 48.9417 76.4447C48.9417 77.2853 49.6232 77.9669 50.4639 77.9669C51.3045 77.9669 51.986 77.2853 51.986 76.4447C51.986 72.501 50.2211 68.964 47.4424 66.5746C50.3807 63.0094 54.7657 60.9177 59.4288 60.9177C67.9904 60.9177 74.9557 67.8832 74.9557 76.4447C74.9557 77.2853 75.6372 77.9669 76.4779 77.9669C77.3185 77.9669 78 77.2853 78 76.4447C78 68.206 72.6067 61.2043 65.1659 58.7817ZM12.6386 51.941V48.6278C12.6386 45.3565 15.3 42.6951 18.5713 42.6951C21.8426 42.6951 24.5039 45.3564 24.5039 48.6278V51.941C24.5039 55.2121 21.8426 57.8736 18.5713 57.8736C15.3001 57.8734 12.6386 55.2121 12.6386 51.941ZM39 54.8736C41.3578 54.8736 43.276 56.7918 43.276 59.1496C43.276 61.5074 41.3578 63.4256 39 63.4256C36.6422 63.4256 34.724 61.5074 34.724 59.1496C34.724 56.7918 36.6424 54.8736 39 54.8736ZM53.4297 48.6278C53.4297 45.3565 56.0911 42.6951 59.3624 42.6951C62.6337 42.6951 65.295 45.3564 65.295 48.6278V51.941C65.295 55.2121 62.6337 57.8736 59.3623 57.8736C56.0911 57.8736 53.4297 55.2122 53.4297 51.941V48.6278Z" fill="#D4A94F"/>
<path d="M19.7626 31.6431C22.1208 31.6431 24.3378 30.7247 26.0052 29.0572C27.6727 27.3899 28.5908 25.1727 28.5908 22.8146C28.5908 22.5859 28.5394 22.3603 28.4401 22.1542L22.1851 9.16605H34.096V31.3893H33.792C30.3926 31.3893 27.6269 34.155 27.6269 37.5546V39C27.6269 39.8405 28.3083 40.5222 29.149 40.5222H48.7846C49.6253 40.5222 50.3068 39.8405 50.3068 39V37.5546C50.3068 34.155 47.541 31.3893 44.1416 31.3893H43.8377V26.0425C43.8377 25.202 43.1562 24.5203 42.3155 24.5203C41.4748 24.5203 40.7934 25.202 40.7934 26.0425V31.3893H37.1402V4.90406C37.1402 3.89685 37.9596 3.07749 38.9668 3.07749C39.974 3.07749 40.7934 3.89685 40.7934 4.90406V12.3432C40.7934 13.1837 41.4748 13.8654 42.3155 13.8654C43.1562 13.8654 43.8377 13.1837 43.8377 12.3432V9.16605H55.7486L49.4935 22.1542C49.3942 22.3603 49.3428 22.5859 49.3428 22.8146C49.3428 25.1727 50.2609 27.3899 51.9285 29.0572C53.596 30.7247 55.813 31.6431 58.1711 31.6431C63.039 31.6431 66.9995 27.6826 66.9995 22.8146C66.9995 22.5664 66.9401 22.3321 66.8348 22.1253C66.5762 21.5887 62.55 13.2285 60.5937 9.16605H63.0675C63.9082 9.16605 64.5896 8.48444 64.5896 7.64391C64.5896 6.80338 63.9082 6.12177 63.0675 6.12177H43.8377V4.90406C43.8377 2.21824 41.6526 0.0332031 38.9668 0.0332031C36.281 0.0332031 34.096 2.21824 34.096 4.90406V6.12177H14.8663C14.0256 6.12177 13.3441 6.80338 13.3441 7.64391C13.3441 8.48444 14.0256 9.16605 14.8663 9.16605H17.3401C15.3841 13.2274 11.3582 21.587 11.0988 22.1256C10.9937 22.3324 10.9343 22.5665 10.9343 22.8146C10.9341 27.6826 14.8946 31.6431 19.7626 31.6431ZM44.1416 34.4336C45.8368 34.4336 47.2208 35.7923 47.2616 37.4779H30.6721C30.7128 35.7923 32.0968 34.4336 33.792 34.4336H44.1416ZM58.1711 11.152L63.0547 21.2925H53.2873L58.1711 11.152ZM58.1711 28.5988C56.6261 28.5988 55.1735 27.9971 54.0811 26.9046C53.3574 26.181 52.8506 25.2988 52.5898 24.3368H63.7505C63.0804 26.7899 60.8336 28.5988 58.1711 28.5988ZM19.7626 28.5988C17.0999 28.5988 14.8532 26.7899 14.1832 24.3368H25.3438C25.0831 25.2988 24.5762 26.181 23.8526 26.9046C22.7601 27.9971 21.3077 28.5988 19.7626 28.5988ZM14.8789 21.2925L19.7626 11.152L24.6464 21.2925H14.8789Z" fill="#D4A94F"/>
<path d="M42.3155 17.6703C41.9152 17.6703 41.5225 17.833 41.2394 18.1163C40.9563 18.3994 40.7934 18.7921 40.7934 19.1924C40.7934 19.5943 40.9563 19.9855 41.2394 20.2684C41.5225 20.5531 41.9152 20.7146 42.3155 20.7146C42.7159 20.7146 43.1086 20.5531 43.3917 20.2684C43.6748 19.9855 43.8377 19.5928 43.8377 19.1924C43.8377 18.7921 43.6748 18.3994 43.3917 18.1163C43.1086 17.8332 42.7159 17.6703 42.3155 17.6703Z" fill="#D4A94F"/>
</g>
<defs>
<clipPath id="clip0_1_175">
<rect width="78" height="78" fill="white"/>
</clipPath>
</defs>
</svg>
