<svg width="36" height="36" viewBox="0 0 36 36" fill="none" xmlns="http://www.w3.org/2000/svg">
<path d="M11.5199 2.16016C6.3593 2.16016 2.15991 6.35954 2.15991 11.5202V24.4802C2.15991 29.6408 6.3593 33.8402 11.5199 33.8402H24.4799C29.6405 33.8402 33.8399 29.6408 33.8399 24.4802V11.5202C33.8399 6.35954 29.6405 2.16016 24.4799 2.16016H11.5199ZM11.5199 3.60016H24.4799C28.8622 3.60016 32.3999 7.13789 32.3999 11.5202V24.4802C32.3999 28.8624 28.8622 32.4002 24.4799 32.4002H11.5199C7.13764 32.4002 3.59991 28.8624 3.59991 24.4802V11.5202C3.59991 7.13789 7.13764 3.60016 11.5199 3.60016ZM26.6399 7.92016C26.258 7.92016 25.8917 8.07187 25.6217 8.34192C25.3516 8.61198 25.1999 8.97824 25.1999 9.36016C25.1999 9.74207 25.3516 10.1083 25.6217 10.3784C25.8917 10.6484 26.258 10.8002 26.6399 10.8002C27.0218 10.8002 27.3881 10.6484 27.6581 10.3784C27.9282 10.1083 28.0799 9.74207 28.0799 9.36016C28.0799 8.97824 27.9282 8.61198 27.6581 8.34192C27.3881 8.07187 27.0218 7.92016 26.6399 7.92016ZM17.9999 10.0802C13.6343 10.0802 10.0799 13.6346 10.0799 18.0002C10.0799 22.3657 13.6343 25.9202 17.9999 25.9202C22.3655 25.9202 25.9199 22.3657 25.9199 18.0002C25.9199 13.6346 22.3655 10.0802 17.9999 10.0802ZM17.9999 11.5202C21.5872 11.5202 24.4799 14.4128 24.4799 18.0002C24.4799 21.5875 21.5872 24.4802 17.9999 24.4802C14.4126 24.4802 11.5199 21.5875 11.5199 18.0002C11.5199 14.4128 14.4126 11.5202 17.9999 11.5202Z" fill="white"/>
</svg>
