<svg width="24" height="32" viewBox="0 0 24 32" fill="none" xmlns="http://www.w3.org/2000/svg">
<path d="M11.9995 0C5.87641 0 0.894989 4.98215 0.894989 11.1054C0.894989 16.9996 10.9703 30.7705 11.3993 31.3536L11.7997 31.8985C11.8465 31.9626 11.9211 32 11.9995 32C12.0792 32 12.1533 31.9626 12.2006 31.8985L12.6007 31.3536C13.0299 30.7705 23.105 16.9996 23.105 11.1054C23.105 4.98215 18.1228 0 11.9995 0ZM11.9995 7.12748C14.1935 7.12748 15.9775 8.91158 15.9775 11.1054C15.9775 13.2981 14.1934 15.0834 11.9995 15.0834C9.80689 15.0834 8.02158 13.2981 8.02158 11.1054C8.02158 8.91158 9.80681 7.12748 11.9995 7.12748Z" fill="#D4A94F"/>
</svg>
