<svg width="32" height="22" viewBox="0 0 32 22" fill="none" xmlns="http://www.w3.org/2000/svg">
<path d="M3.90873 0.137939H28.0913C30.2464 0.137939 32 1.89149 32 4.04667V17.9535C32 20.1087 30.2464 21.8623 28.0913 21.8623H3.90873C1.75355 21.8623 2.52451e-06 20.1087 2.52451e-06 17.9535V4.0471C-0.000422476 1.89149 1.75313 0.137939 3.90873 0.137939ZM5.81869 2.68794L16 9.2474L26.1813 2.68794H5.81869ZM3.90873 19.3127H28.0913C28.8405 19.3127 29.45 18.7028 29.45 17.954V4.11935L16.7867 12.2624C16.7697 12.273 16.7514 12.2802 16.734 12.29C16.7157 12.3002 16.697 12.31 16.6783 12.3193C16.5801 12.3699 16.479 12.4107 16.3757 12.4375C16.3651 12.4404 16.3545 12.4417 16.3438 12.4443C16.2304 12.471 16.1156 12.4876 16.0009 12.4876H16C15.9992 12.4876 15.9983 12.4876 15.9983 12.4876C15.8836 12.4876 15.7688 12.4715 15.6553 12.4443C15.6447 12.4417 15.6341 12.4404 15.6235 12.4375C15.5202 12.4107 15.4195 12.3699 15.3209 12.3193C15.3022 12.31 15.2835 12.3002 15.2652 12.29C15.2478 12.2802 15.2295 12.273 15.2125 12.2624L2.54916 4.11935V17.9535C2.54958 18.7028 3.15946 19.3127 3.90873 19.3127Z" fill="#D4A94F"/>
</svg>
