<svg width="32" height="32" viewBox="0 0 32 32" fill="none" xmlns="http://www.w3.org/2000/svg">
<path d="M22.3221 20.5294L21.5123 21.3817C21.5123 21.3817 19.5877 23.4081 14.3344 17.8771C9.08109 12.3464 11.0057 10.3202 11.0057 10.3202L11.5155 9.78332C12.7717 8.46089 12.8901 6.33772 11.7941 4.78773L9.55245 1.61709C8.19604 -0.301334 5.57503 -0.554756 4.02035 1.08203L1.22995 4.01981C0.459072 4.8314 -0.0575143 5.88347 0.00513457 7.05057C0.165401 10.0364 1.44126 16.4606 8.56063 23.956C16.1104 31.9045 23.1943 32.2203 26.0912 31.9344C27.0074 31.844 27.8042 31.3499 28.4464 30.6738L30.9719 28.0151C32.6766 26.2203 32.1959 23.1434 30.0147 21.8881L26.6183 19.933C25.1861 19.1088 23.4414 19.3508 22.3221 20.5294Z" fill="#D4A94F"/>
</svg>
