<svg width="36" height="36" viewBox="0 0 36 36" fill="none" xmlns="http://www.w3.org/2000/svg">
<path d="M26.6381 20.6862C26.568 20.6525 23.9435 19.3601 23.4771 19.1923C23.2867 19.1239 23.0828 19.0572 22.8659 19.0572C22.5115 19.0572 22.2138 19.2338 21.9819 19.5807C21.7197 19.9704 20.9261 20.8981 20.6808 21.1752C20.6488 21.2118 20.6051 21.2555 20.5789 21.2555C20.5554 21.2555 20.1493 21.0882 20.0263 21.0348C17.2109 19.8119 15.074 16.871 14.7809 16.375C14.7391 16.3037 14.7373 16.2714 14.737 16.2714C14.7473 16.2336 14.8419 16.1387 14.8908 16.0897C15.0337 15.9483 15.1886 15.7619 15.3385 15.5815C15.4094 15.4961 15.4805 15.4105 15.5503 15.3299C15.7677 15.0769 15.8644 14.8806 15.9766 14.6531L16.0354 14.5349C16.3094 13.9906 16.0754 13.5313 15.9998 13.3829C15.9377 13.2588 14.8296 10.5843 14.7117 10.3033C14.4284 9.62527 14.054 9.30957 13.5338 9.30957C13.4855 9.30957 13.5338 9.30957 13.3313 9.3181C13.0848 9.32851 11.7424 9.50523 11.1489 9.87938C10.5195 10.2762 9.45468 11.5411 9.45468 13.7656C9.45468 15.7677 10.7252 17.6581 11.2707 18.377C11.2843 18.3951 11.3091 18.4319 11.3453 18.4848C13.4343 21.5357 16.0386 23.7966 18.6786 24.8513C21.2203 25.8665 22.4238 25.9839 23.108 25.9839H23.1081C23.3957 25.9839 23.6258 25.9613 23.8289 25.9413L23.9577 25.9291C24.8357 25.8512 26.7652 24.8514 27.2041 23.6317C27.5498 22.6711 27.641 21.6215 27.411 21.2405C27.2534 20.9815 26.9819 20.8512 26.6381 20.6862Z" fill="white"/>
<path d="M18.3195 0C8.56961 0 0.637453 7.87255 0.637453 17.5492C0.637453 20.679 1.47504 23.7426 3.06173 26.4239L0.0247521 35.3824C-0.0318193 35.5494 0.0102586 35.7341 0.133804 35.8599C0.222986 35.9509 0.34396 36 0.467505 36C0.514843 36 0.562531 35.9929 0.609051 35.978L9.95035 33.0097C12.5066 34.3754 15.3957 35.0964 18.3196 35.0964C28.0686 35.0965 36 27.2248 36 17.5492C36 7.87255 28.0686 0 18.3195 0ZM18.3195 31.4409C15.5682 31.4409 12.9034 30.6464 10.6127 29.1433C10.5357 29.0927 10.4463 29.0667 10.3563 29.0667C10.3087 29.0667 10.261 29.074 10.2146 29.0887L5.53521 30.5762L7.0458 26.1195C7.09466 25.9753 7.07023 25.8162 6.98023 25.6932C5.23587 23.3098 4.31378 20.4937 4.31378 17.5492C4.31378 9.88831 10.5967 3.65564 18.3194 3.65564C26.0412 3.65564 32.3234 9.88831 32.3234 17.5492C32.3235 25.2091 26.0414 31.4409 18.3195 31.4409Z" fill="white"/>
</svg>
